<?xml version="1.0" encoding="UTF-8"?>
<svg width="22px" height="22px" viewBox="0 0 22 22" version="1.1" xmlns="http://www.w3.org/2000/svg" xmlns:xlink="http://www.w3.org/1999/xlink">
    <!-- Generator: sketchtool 63.1 (101010) - https://sketch.com -->
    <title>27A7EF40-C714-428C-B55E-AD05EB2CA61D</title>
    <desc>Created with sketchtool.</desc>
    <g id="Payment-page" stroke="none" stroke-width="1" fill="none" fill-rule="evenodd">
        <g id="Staff-Allowanance-Mangement" transform="translate(-343.000000, -1026.000000)" fill="#6EAC54" fill-rule="nonzero">
            <g id="Manage-files-screen-Add-files-to-Transaction-(1)">
                <g id="Manage_files_screen_Add_files_to_Transaction">
                    <g id="attach" transform="translate(354.235767, 1036.820747) rotate(-3.000000) translate(-354.235767, -1036.820747) translate(342.735767, 1026.320747)">
                        <g id="Group_57">
                            <path d="M17.729,0.035 C16.7439434,0.183750935 15.8357645,0.654189674 15.146,1.373 L4.715,11.8 C4.24226854,12.2516894 3.92238164,12.8397219 3.8,13.482 C3.64217089,14.4184266 3.94684926,15.3733775 4.61784544,16.0453663 C5.28884162,16.7173551 6.24334113,17.0234447 7.18,16.867 C7.82173624,16.7453308 8.40924131,16.4257001 8.86,15.953 L18.378,6.437 C18.5610933,6.25353168 18.5610933,5.95646832 18.378,5.773 L17.714,5.109 C17.5305317,4.9259067 17.2334683,4.9259067 17.05,5.109 L7.434,14.72 C7.16783714,14.9861629 6.77989631,15.0901113 6.41631107,14.9926889 C6.05272584,14.8952666 5.76873344,14.6112742 5.67131107,14.2476889 C5.5738887,13.8841037 5.67783714,13.4961629 5.944,13.23 L16.6,2.576 C17.0453061,2.1271085 17.6517025,1.87504349 18.284,1.876 C19.2472657,1.87830433 20.1158213,2.45630919 20.4898973,3.3439765 C20.8639732,4.23164382 20.6710798,5.25695875 20,5.948 L8.89,17.437 C8.23131674,18.1485266 7.34923343,18.613561 6.39,18.755 C5.18096107,18.9012913 3.97068123,18.4924368 3.09804495,17.642918 C2.22540867,16.7933992 1.78421485,15.5945301 1.898,14.382 C1.99872816,13.4002575 2.44324542,12.4857208 3.153,11.8 L13.484,1.466 C13.6670933,1.28253168 13.6670933,0.985468323 13.484,0.802 L12.82,0.138 C12.6365317,-0.0450932981 12.3394683,-0.0450932981 12.156,0.138 L1.724,10.567 C-0.567981712,12.8852152 -0.546715237,16.6225183 1.7715,18.9145 C4.08971524,21.2064817 7.82701829,21.1852152 10.119,18.867 L21.348,7.254 C22.6072966,5.94658547 22.9053842,3.98721648 22.0918683,2.36445568 C21.2783524,0.741694873 19.5300363,-0.191779273 17.729,0.035 Z" id="Path_52"></path>
                        </g>
                    </g>
                </g>
            </g>
        </g>
    </g>
</svg>